Coordinates
version=1
nRows=14
nColumns=33
inDegrees=yes

Units are S.I. units (second, meters, Newtons, ...)
Angles are in degrees.

endheader
time	ground_thorax_rot_x	ground_thorax_rot_y	ground_thorax_rot_z	ground_thorax_tx	ground_thorax_ty	ground_thorax_tz	clav_prot_r	clav_elev_r	scapula_abduction_r	scapula_elevation_r	scapula_upward_rot_r	scapula_winging_r	shoulder_elv_r	plane_of_elev_r	axial_rot_r	elbow_flexion_r	pro_sup_r	wrist_flex_r	wrist_dev_r	clav_prot_l	clav_elev_l	scapula_abduction_l	scapula_elevation_l	scapula_upward_rot_l	scapula_winging_l	shoulder_elv_l	plane_of_elev_l	axial_rot_l	elbow_flexion_l	pro_sup_l	wrist_flex_l	wrist_dev_l
      0.33000000	     14.61240593	     44.61278886	     11.62674901	     -0.00387249	      1.02110339	     -0.05081682	    -37.77345674	     27.94745996	    -44.99981729	     16.89100418	     45.00000000	    -22.90816889	      6.34525068	    -21.96797238	     57.52034007	     80.77194535	     22.27589639	     13.51304737	     -8.91015489	     26.20800385	    -37.57254059	    -45.00000000	      8.29565696	    -45.00000000	      3.92600205	     56.70921525	     14.32818135	    -15.98983624	     80.85010768	     48.65262969	     17.89799634	    -22.73160000
      0.34000000	     14.61715902	     44.61336069	     11.63398306	     -0.00394190	      1.02144178	     -0.05091147	    -37.77310513	     27.94818607	    -45.00000000	     16.89162059	     45.00000000	    -22.90868789	      6.34500362	    -21.96814854	     57.52077222	     80.77324155	     22.27676653	     13.51346887	     -8.91017630	     26.20845284	    -37.57132590	    -45.00000000	      8.29661358	    -44.99526574	      3.92808230	     56.71404944	     14.33236123	    -15.98740300	     80.85256926	     48.65184306	     17.89725750	    -22.73115940
      0.35000000	     14.42359061	     44.50284548	     11.79880007	     -0.00406415	      1.02114468	     -0.05036926	    -37.69115415	     28.05003672	    -45.00000000	     16.97896853	     45.00000000	    -22.83219537	      6.12361665	    -21.98697559	     57.34128314	     80.78838245	     23.08338136	     13.73223078	     -8.93786870	     26.20323492	    -37.55170763	    -45.00000000	      8.27741567	    -45.00000000	      3.94309385	     57.56101158	     14.08497806	    -16.26027312	     81.31863746	     48.07701628	     17.89821233	    -22.31391231
      0.36000000	     14.49380536	     44.42859694	     11.82542555	     -0.00414716	      1.02112221	     -0.05039711	    -37.62202847	     28.08448107	    -44.94373484	     17.01594662	     45.00000000	    -22.77302242	      6.30072943	    -21.95861466	     57.39333409	     80.99106844	     23.19103372	     13.83009080	     -8.95841855	     26.19321425	    -37.51214861	    -45.00000000	      8.24274991	    -45.00000000	      3.98011299	     57.67988056	     14.09269374	    -16.26854501	     81.47812744	     47.94919397	     17.88915253	    -22.29304369
      0.37000000	     14.54104729	     44.38397547	     11.84153992	     -0.00407969	      1.02110903	     -0.05038893	    -37.58208839	     28.14747887	    -44.96069968	     17.06905330	     45.00000000	    -22.73077440	      6.40489219	    -21.95613265	     57.41526091	     81.19825703	     23.29063258	     13.95250676	     -8.99615706	     26.18397651	    -37.47608131	    -45.00000000	      8.21100749	    -45.00000000	      4.01101033	     57.87651960	     14.08573629	    -16.35689726	     81.67094610	     47.79634932	     17.88462860	    -22.28127379
      0.38000000	     14.54558916	     44.38359183	     11.84618736	     -0.00424982	      1.02153181	     -0.05051650	    -37.58185709	     28.14904247	    -44.96182129	     17.07045640	     45.00000000	    -22.73229023	      6.40693157	    -21.95693230	     57.41474984	     81.20018874	     23.29097525	     13.95336407	     -8.99682609	     26.18412072	    -37.47373411	    -45.00000000	      8.21039145	    -44.99629066	      4.01425987	     57.88139087	     14.08777554	    -16.35517934	     81.67353311	     47.79524134	     17.88409208	    -22.28115352
      0.39000000	     14.58240510	     44.25116507	     11.92618209	     -0.00426055	      1.02115867	     -0.05033439	    -37.51416102	     28.25113068	    -44.98610532	     17.15821434	     45.00000000	    -22.66703509	      6.58216051	    -21.92159500	     57.46251985	     81.59950709	     23.35387970	     14.15383769	     -9.07421652	     26.15254712	    -37.36797520	    -45.00000000	      8.11757636	    -45.00000000	      4.10703589	     58.24569633	     14.08324348	    -16.49693503	     82.04855711	     47.62614288	     17.86118988	    -22.33018989
      0.40000000	     14.65735763	     44.28627744	     11.83150929	     -0.00379528	      1.02111933	     -0.05028197	    -37.48025237	     28.30928559	    -45.00000000	     17.20557592	     45.00000000	    -22.63458336	      6.66960959	    -22.09504768	     57.33040747	     81.88007591	     23.48873161	     14.49302669	     -9.25289837	     26.15213502	    -37.34785275	    -45.00000000	      8.09852846	    -44.99993718	      4.12284969	     58.73303857	     13.98058370	    -16.83441448	     82.43412761	     47.24110656	     17.88886372	    -22.21404211
      0.41000000	     14.74908238	     44.43928362	     11.62055871	     -0.00393867	      1.02170610	     -0.05034080	    -37.46097060	     28.02750826	    -44.66729307	     16.99858956	     45.00000000	    -22.63796602	      6.96932922	    -22.66933187	     57.05192355	     81.99756777	     24.11234434	     15.50912475	     -9.65127415	     26.25518883	    -37.76016199	    -45.00000000	      8.46090922	    -45.00000000	      3.75952318	     59.70249831	     13.36935246	    -16.89486104	     82.84684704	     44.96861673	     18.15619887	    -20.77949260
      0.42000000	     14.74189754	     44.38390120	     11.68542604	     -0.00393821	      1.02161226	     -0.05021178	    -37.40694056	     28.11944642	    -44.69460212	     17.07569743	     45.00000000	    -22.58664506	      7.03585954	    -22.67601200	     57.10227665	     82.29297210	     24.10860919	     15.54706076	     -9.67643870	     26.23161213	    -37.66406839	    -45.00000000	      8.37614108	    -45.00000000	      3.84686322	     59.88880157	     13.37349930	    -16.97251373	     83.14151554	     44.84832805	     18.15119242	    -20.87432738
      0.43000000	     14.76432757	     44.33901310	     11.73006033	     -0.00391000	      1.02156412	     -0.05012926	    -37.36026623	     28.20631468	    -44.72594493	     17.14802742	     45.00000000	    -22.53994624	      7.14095405	    -22.69783799	     57.13239449	     82.57966682	     24.10370688	     15.61853711	     -9.73024167	     26.20990184	    -37.57147135	    -45.00000000	      8.29467527	    -45.00000000	      3.92624480	     60.10641672	     13.37176733	    -17.10361205	     83.48222482	     44.72023585	     18.15694410	    -20.96550395
      0.44000000	     14.78104102	     44.32426267	     11.74382746	     -0.00380228	      1.02147863	     -0.05009687	    -37.31572639	     28.29807980	    -44.76643017	     17.22269843	     45.00000000	    -22.49685503	      7.24430339	    -22.75257962	     57.15795205	     82.89796536	     24.09889057	     15.72914629	     -9.81620645	     26.18629912	    -37.48634966	    -45.00000000	      8.21988287	    -45.00000000	      4.00326606	     60.35694390	     13.35614939	    -17.25558616	     83.85016978	     44.57923645	     18.17369082	    -21.04030255
      0.45000000	     14.84208210	     44.53910293	     11.55245759	     -0.00363931	      1.02191436	     -0.05023382	    -37.33074846	     28.03680511	    -44.50203281	     17.02535168	     45.00000000	    -22.52755817	      7.56499854	    -23.45435636	     56.99184987	     83.32475848	     24.02900967	     16.29832426	    -10.44222158	     26.24674109	    -37.72667234	    -45.00000000	      8.43121166	    -45.00000000	      3.79067214	     61.15116600	     12.97924790	    -17.45315629	     84.38253275	     43.44081678	     18.61831033	    -20.36495301
      0.46000000	     14.83546946	     44.45712438	     11.61584238	     -0.00367984	      1.02185216	     -0.05012195	    -37.26962434	     28.12662492	    -44.51665921	     17.10221444	     45.00000000	    -22.47076027	      7.65607175	    -23.45859218	     57.04808909	     83.65143580	     24.02532182	     16.38575893	    -10.47631509	     26.21645424	    -37.60698717	    -45.00000000	      8.32599906	    -45.00000000	      3.89607928	     61.36899138	     12.96564433	    -17.53666876	     84.78314106	     43.32838633	     18.59139390	    -20.47979216
